<svg width="50" height="50" viewBox="0 0 50 50" fill="none" xmlns="http://www.w3.org/2000/svg">
<circle cx="25" cy="25" r="25" fill="white"/>
<path d="M25 16C20.0373 16 16 20.0373 16 24.9999C16 29.9625 20.0373 33.9998 25 33.9998C29.9627 33.9998 34 29.9625 34 24.9999C34 20.0373 29.9627 16 25 16ZM30.8649 20.2446C31.8753 21.4883 32.4974 23.0581 32.5491 24.7693C30.6775 24.3818 28.9827 24.4273 27.4866 24.7206C27.2157 24.0871 26.9353 23.4836 26.6523 22.9132C28.2816 22.2113 29.7 21.3148 30.8649 20.2446ZM29.8511 19.2142C28.6948 20.2696 27.3547 21.0511 25.9826 21.628C24.9755 19.7864 24.012 18.3995 23.425 17.6114C23.9333 17.5031 24.4599 17.445 25 17.445C26.8455 17.445 28.5377 18.1111 29.8511 19.2142ZM21.9655 18.0834C22.4088 18.6577 23.4645 20.0958 24.5986 22.1419C21.7484 23.0705 18.9828 23.2269 17.6538 23.2415C18.2077 20.9275 19.8282 19.0248 21.9655 18.0834ZM17.4529 24.6902C17.4672 24.6902 17.481 24.6903 17.4955 24.6903C18.4138 24.6903 20.0962 24.6285 22.0769 24.2674C23.2069 24.0613 24.2784 23.784 25.2839 23.4402C25.5456 23.9619 25.8059 24.5122 26.0582 25.0889C24.6503 25.5422 23.4631 26.1944 22.5226 26.8419C20.9456 27.9279 19.8408 29.1328 19.2376 29.8778C18.1206 28.5606 17.445 26.8581 17.445 24.9999C17.445 24.8961 17.4487 24.7931 17.4529 24.6902ZM20.2789 30.8917C20.7982 30.2378 21.8553 29.0476 23.3844 28.0032C24.4236 27.2934 25.4987 26.766 26.6055 26.4199C27.2477 28.0844 27.796 29.9235 28.1228 31.8764C27.1703 32.3107 26.1135 32.5548 25 32.5548C23.2147 32.5548 21.5732 31.931 20.2789 30.8917ZM29.4523 31.0983C29.1154 29.3048 28.613 27.6184 28.0322 26.0772C29.4608 25.8362 30.9374 25.8859 32.4539 26.2266C32.1268 28.2197 31.0177 29.9523 29.4523 31.0983Z" fill="black"/>
</svg>
