<svg width="50" height="50" viewBox="0 0 50 50" fill="none" xmlns="http://www.w3.org/2000/svg">
<circle cx="25" cy="25" r="25" fill="white"/>
<g clip-path="url(#clip0_1395_14)">
<path d="M25.2722 27.2102C25.2722 25.8242 24.613 24.7997 23.251 24.4157C24.2447 23.9425 24.763 23.2255 24.763 22.1102C24.763 19.9112 23.119 19.375 21.2222 19.375H16V30.4157H21.3685C23.3815 30.4157 25.2722 29.4535 25.2722 27.2102ZM18.4345 21.2597H20.719C21.5972 21.2597 22.3877 21.5057 22.3877 22.5212C22.3877 23.4587 21.7727 23.836 20.9027 23.836H18.4345V21.2597ZM18.4337 28.5407V25.5002H21.0872C22.159 25.5002 22.837 25.9457 22.837 27.0767C22.837 28.192 22.0277 28.5407 21.037 28.5407H18.4337Z" fill="black"/>
<path d="M30.0962 30.6248C32.0117 30.6248 33.2522 29.7645 33.8492 27.936H31.9052C31.6959 28.6185 30.8334 28.9793 30.1644 28.9793C28.8737 28.9793 28.1957 28.2255 28.1957 26.9445H33.9805C34.1635 24.381 32.7355 22.1963 30.0954 22.1963C27.6512 22.1963 25.9922 24.0278 25.9922 26.427C25.9922 28.917 27.5642 30.6248 30.0962 30.6248ZM30.0272 23.8553C31.1334 23.8553 31.6899 24.5033 31.7829 25.563H28.1987C28.2714 24.5123 28.9712 23.8553 30.0272 23.8553Z" fill="black"/>
<path d="M27.75 19.9551H32.241V21.0426H27.75V19.9551Z" fill="black"/>
</g>
<defs>
<clipPath id="clip0_1395_14">
<rect width="18" height="18" fill="white" transform="translate(16 16)"/>
</clipPath>
</defs>
</svg>
