<svg width="50" height="50" viewBox="0 0 50 50" fill="none" xmlns="http://www.w3.org/2000/svg">
<circle cx="25" cy="25" r="25" fill="white"/>
<path d="M28.9984 17.0033L26.9236 17C24.5926 17 23.0862 18.5455 23.0862 20.9376V22.7531H21.0001C20.8198 22.7531 20.6738 22.8992 20.6738 23.0795V25.7099C20.6738 25.8902 20.82 26.0362 21.0001 26.0362H23.0862V32.6736C23.0862 32.8539 23.2322 32.9998 23.4125 32.9998H26.1343C26.3145 32.9998 26.4605 32.8537 26.4605 32.6736V26.0362H28.8997C29.08 26.0362 29.226 25.8902 29.226 25.7099L29.227 23.0795C29.227 22.9929 29.1925 22.91 29.1314 22.8488C29.0703 22.7875 28.9871 22.7531 28.9005 22.7531H26.4605V21.2141C26.4605 20.4743 26.6368 20.0988 27.6004 20.0988L28.9981 20.0983C29.1782 20.0983 29.3242 19.9522 29.3242 19.7721V17.3296C29.3242 17.1496 29.1783 17.0037 28.9984 17.0033Z" fill="black"/>
</svg>
