<svg width="50" height="50" viewBox="0 0 50 50" fill="none" xmlns="http://www.w3.org/2000/svg">
<circle cx="25" cy="25" r="25" fill="white"/>
<path d="M21.0045 21.5488H17.8574V30.9995H21.0045V21.5488Z" fill="black"/>
<path d="M31.3329 22.4126C30.6718 21.691 29.7975 21.3301 28.7104 21.3301C28.3098 21.3301 27.9458 21.3793 27.6183 21.478C27.2909 21.5765 27.0144 21.7147 26.7886 21.8928C26.563 22.0708 26.3833 22.2361 26.2499 22.3886C26.123 22.5335 25.999 22.7022 25.8779 22.8931V21.5493H22.7402L22.7499 22.0071C22.7563 22.3123 22.7595 23.2532 22.7595 24.8299C22.7595 26.4066 22.7531 28.4633 22.7404 31.0001H25.8779V25.7262C25.8779 25.4021 25.9127 25.1446 25.9828 24.9537C26.1164 24.6293 26.318 24.3577 26.5884 24.1385C26.8587 23.9189 27.194 23.8093 27.5946 23.8093C28.1412 23.8093 28.5435 23.9984 28.801 24.3767C29.0585 24.7549 29.1872 25.2779 29.1872 25.9455V30.9998H32.3247V25.5833C32.3245 24.1908 31.9942 23.134 31.3329 22.4126Z" fill="black"/>
<path d="M19.4496 17C18.9219 17 18.4944 17.1543 18.1669 17.4626C17.8394 17.7709 17.6758 18.1602 17.6758 18.6307C17.6758 19.0947 17.8347 19.4827 18.1526 19.7941C18.4704 20.1056 18.8901 20.2614 19.4114 20.2614H19.4304C19.9646 20.2614 20.3953 20.1057 20.7227 19.7941C21.0501 19.4827 21.2106 19.0949 21.2043 18.6307C21.1979 18.1602 21.0357 17.7709 20.7179 17.4626C20.4002 17.1542 19.9772 17 19.4496 17Z" fill="black"/>
</svg>
