<svg width="50" height="50" viewBox="0 0 50 50" fill="none" xmlns="http://www.w3.org/2000/svg">
<circle cx="25" cy="25" r="25" fill="white"/>
<path d="M29.0325 16H20.9672C18.2283 16 16 18.2284 16 20.9673V29.0326C16 31.7716 18.2283 33.9999 20.9672 33.9999H29.0325C31.7716 33.9999 33.9999 31.7715 33.9999 29.0326V20.9673C34 18.2284 31.7716 16 29.0325 16ZM32.403 29.0326C32.403 30.891 30.891 32.4029 29.0326 32.4029H20.9672C19.1089 32.403 17.597 30.891 17.597 29.0326V20.9673C17.597 19.109 19.1089 17.597 20.9672 17.597H29.0325C30.8909 17.597 32.4029 19.109 32.4029 20.9673V29.0326H32.403Z" fill="black"/>
<path d="M24.9994 20.3613C22.4419 20.3613 20.3613 22.442 20.3613 24.9994C20.3613 27.5568 22.4419 29.6374 24.9994 29.6374C27.5569 29.6374 29.6375 27.5568 29.6375 24.9994C29.6375 22.442 27.5569 20.3613 24.9994 20.3613ZM24.9994 28.0402C23.3227 28.0402 21.9584 26.6761 21.9584 24.9993C21.9584 23.3225 23.3226 21.9583 24.9994 21.9583C26.6763 21.9583 28.0405 23.3225 28.0405 24.9993C28.0405 26.6761 26.6762 28.0402 24.9994 28.0402Z" fill="black"/>
<path d="M29.8333 19.0078C29.5256 19.0078 29.2233 19.1324 29.006 19.3506C28.7876 19.5678 28.6621 19.8702 28.6621 20.179C28.6621 20.4868 28.7877 20.789 29.006 21.0073C29.2232 21.2245 29.5256 21.3501 29.8333 21.3501C30.142 21.3501 30.4433 21.2245 30.6616 21.0073C30.8799 20.789 31.0044 20.4867 31.0044 20.179C31.0044 19.8702 30.8799 19.5678 30.6616 19.3506C30.4444 19.1324 30.142 19.0078 29.8333 19.0078Z" fill="black"/>
</svg>
