<svg width="172" height="36" viewBox="0 0 172 36" fill="none" xmlns="http://www.w3.org/2000/svg">
<path d="M0 28V0H4.6V23.6H18.8V28H0Z" fill="white"/>
<path d="M23.0416 25.36C21.0149 23.3067 20.0016 20.7867 20.0016 17.8C20.0016 14.8133 21.0149 12.3067 23.0416 10.28C25.0949 8.22667 27.6149 7.2 30.6016 7.2C33.5882 7.2 36.0949 8.22667 38.1216 10.28C40.1749 12.3067 41.2016 14.8133 41.2016 17.8C41.2016 20.7867 40.1749 23.3067 38.1216 25.36C36.0949 27.3867 33.5882 28.4 30.6016 28.4C27.6149 28.4 25.0949 27.3867 23.0416 25.36ZM26.1216 12.88C24.9749 14.1067 24.4016 15.7467 24.4016 17.8C24.4016 19.8533 24.9749 21.5067 26.1216 22.76C27.2682 23.9867 28.7616 24.6 30.6016 24.6C32.4416 24.6 33.9349 23.9867 35.0816 22.76C36.2282 21.5067 36.8016 19.8533 36.8016 17.8C36.8016 15.7467 36.2282 14.1067 35.0816 12.88C33.9349 11.6267 32.4416 11 30.6016 11C28.7616 11 27.2682 11.6267 26.1216 12.88Z" fill="white"/>
<path d="M46.3153 25.48C44.502 23.5067 43.5953 20.9467 43.5953 17.8C43.5953 14.6533 44.502 12.1067 46.3153 10.16C48.1553 8.18667 50.4486 7.2 53.1953 7.2C54.9286 7.2 56.5153 7.70667 57.9553 8.72C58.5953 9.17333 59.142 9.68 59.5953 10.24H59.7953V7.6H63.9953V35.6H46.5953V31.8H59.7953V25.4H59.5953C59.142 25.96 58.5953 26.4667 57.9553 26.92C56.542 27.9067 54.9553 28.4 53.1953 28.4C50.4486 28.4 48.1553 27.4267 46.3153 25.48ZM49.5953 12.76C48.5286 13.9333 47.9953 15.6133 47.9953 17.8C47.9953 19.9867 48.5286 21.6667 49.5953 22.84C50.662 24.0133 52.1286 24.6 53.9953 24.6C55.7553 24.6 57.1553 24.0133 58.1953 22.84C59.262 21.64 59.7953 19.96 59.7953 17.8C59.7953 15.64 59.262 13.9733 58.1953 12.8C57.1553 11.6 55.7553 11 53.9953 11C52.1286 11 50.662 11.5867 49.5953 12.76Z" fill="white"/>
<path d="M70.6197 25.36C68.593 23.3067 67.5797 20.7867 67.5797 17.8C67.5797 14.8133 68.593 12.3067 70.6197 10.28C72.673 8.22667 75.193 7.2 78.1797 7.2C81.1664 7.2 83.673 8.22667 85.6997 10.28C87.753 12.3067 88.7797 14.8133 88.7797 17.8C88.7797 20.7867 87.753 23.3067 85.6997 25.36C83.673 27.3867 81.1664 28.4 78.1797 28.4C75.193 28.4 72.673 27.3867 70.6197 25.36ZM73.6997 12.88C72.553 14.1067 71.9797 15.7467 71.9797 17.8C71.9797 19.8533 72.553 21.5067 73.6997 22.76C74.8464 23.9867 76.3397 24.6 78.1797 24.6C80.0197 24.6 81.513 23.9867 82.6597 22.76C83.8064 21.5067 84.3797 19.8533 84.3797 17.8C84.3797 15.7467 83.8064 14.1067 82.6597 12.88C81.513 11.6267 80.0197 11 78.1797 11C76.3397 11 74.8464 11.6267 73.6997 12.88Z" fill="white"/>
<path d="M90.7734 11.4V7.6H93.1734V3.2H97.3734V7.6H103.573V11.4H97.3734V24.2H103.773V28H93.1734V11.4H90.7734Z" fill="white"/>
<path d="M105.373 7.6H109.773L114.173 24H116.373L121.173 7.6H125.573L117.173 35.6H112.773L115.173 28H110.973L105.373 7.6Z" fill="white"/>
<path d="M127.764 35.6V7.6H131.964V10.2H132.164C132.644 9.64 133.191 9.14667 133.804 8.72C135.244 7.70667 136.831 7.2 138.564 7.2C141.311 7.2 143.591 8.18667 145.404 10.16C147.244 12.1067 148.164 14.6533 148.164 17.8C148.164 20.9467 147.244 23.5067 145.404 25.48C143.591 27.4267 141.311 28.4 138.564 28.4C136.804 28.4 135.217 27.9067 133.804 26.92C133.164 26.4667 132.617 25.96 132.164 25.4H131.964V35.6H127.764ZM133.524 12.8C132.484 13.9733 131.964 15.64 131.964 17.8C131.964 19.96 132.484 21.64 133.524 22.84C134.591 24.0133 136.004 24.6 137.764 24.6C139.631 24.6 141.097 24.0133 142.164 22.84C143.231 21.6667 143.764 19.9867 143.764 17.8C143.764 15.6133 143.231 13.9333 142.164 12.76C141.097 11.5867 139.631 11 137.764 11C136.004 11 134.591 11.6 133.524 12.8Z" fill="white"/>
<path d="M153.548 25.36C151.548 23.3067 150.548 20.7867 150.548 17.8C150.548 14.8133 151.548 12.3067 153.548 10.28C155.575 8.22667 158.042 7.2 160.948 7.2C163.855 7.2 166.308 8.22667 168.308 10.28C170.335 12.3067 171.348 14.8133 171.348 17.8V19.2H154.748C155.068 20.88 155.802 22.2 156.948 23.16C158.095 24.12 159.428 24.6 160.948 24.6C162.815 24.6 164.308 24.1333 165.428 23.2C165.935 22.8267 166.375 22.36 166.748 21.8H171.148C170.588 23.1067 169.882 24.2133 169.028 25.12C166.842 27.3067 164.148 28.4 160.948 28.4C158.042 28.4 155.575 27.3867 153.548 25.36ZM154.948 15.8H166.948C166.708 14.4667 166.068 13.3333 165.028 12.4C164.015 11.4667 162.655 11 160.948 11C159.508 11 158.228 11.44 157.108 12.32C155.988 13.1733 155.268 14.3333 154.948 15.8Z" fill="white"/>
</svg>
