<svg width="158" height="156" viewBox="0 0 158 156" fill="none" xmlns="http://www.w3.org/2000/svg">
<path d="M53.7546 70.06H55.4346C55.5 70.3867 55.6353 70.6807 55.8406 70.942C56.2886 71.5207 56.97 71.81 57.8846 71.81C58.622 71.81 59.168 71.6793 59.5226 71.418C59.8773 71.1473 60.0546 70.788 60.0546 70.34C60.0546 69.9853 59.8913 69.7007 59.5646 69.486C59.2473 69.2713 58.79 69.0847 58.1926 68.926C57.026 68.6273 56.242 68.38 55.8406 68.184C54.73 67.6707 54.1746 66.896 54.1746 65.86C54.1746 65.0667 54.5106 64.3807 55.1826 63.802C55.8546 63.214 56.732 62.92 57.8146 62.92C59.252 62.92 60.3206 63.4007 61.0206 64.362C61.3193 64.7727 61.534 65.2487 61.6646 65.79H59.9846C59.9193 65.5287 59.8026 65.2953 59.6346 65.09C59.2426 64.6233 58.636 64.39 57.8146 64.39C57.18 64.39 56.6946 64.5207 56.3586 64.782C56.0226 65.0433 55.8546 65.3793 55.8546 65.79C55.8546 66.406 56.4753 66.882 57.7166 67.218C57.8193 67.246 58.0153 67.302 58.3046 67.386C58.594 67.4607 58.7993 67.5213 58.9206 67.568C59.0513 67.6053 59.2473 67.6707 59.5086 67.764C59.7793 67.848 59.98 67.9273 60.1106 68.002C60.2413 68.0767 60.4093 68.1747 60.6146 68.296C60.82 68.408 60.974 68.5293 61.0766 68.66C61.1886 68.7813 61.3006 68.9213 61.4126 69.08C61.534 69.2387 61.618 69.4207 61.6646 69.626C61.7113 69.822 61.7346 70.0367 61.7346 70.27C61.7346 71.11 61.3846 71.824 60.6846 72.412C59.994 72.9907 59.0606 73.28 57.8846 73.28C56.3166 73.28 55.164 72.7433 54.4266 71.67C54.0906 71.2127 53.8666 70.676 53.7546 70.06ZM63.1981 69.22V63.2H64.8081V69.22C64.8081 70.0227 65.0181 70.6433 65.4381 71.082C65.8581 71.5207 66.4414 71.74 67.1881 71.74C67.9348 71.74 68.5181 71.5207 68.9381 71.082C69.3581 70.6433 69.5681 70.0227 69.5681 69.22V63.2H71.1781V69.22C71.1781 70.48 70.8188 71.474 70.1001 72.202C69.3908 72.9207 68.4201 73.28 67.1881 73.28C65.9561 73.28 64.9808 72.9207 64.2621 72.202C63.5528 71.474 63.1981 70.48 63.1981 69.22ZM73.0708 73V63.2H77.9008C78.8248 63.2 79.5575 63.4427 80.0988 63.928C80.6402 64.404 80.9108 65.0013 80.9108 65.72C80.9108 66.4387 80.6635 66.9893 80.1688 67.372C79.9635 67.5307 79.7208 67.6567 79.4408 67.75V67.82C79.7862 67.8947 80.0895 68.0207 80.3508 68.198C80.9575 68.6367 81.2608 69.304 81.2608 70.2C81.2608 71.0307 80.9622 71.7073 80.3648 72.23C79.7675 72.7433 78.9228 73 77.8308 73H73.0708ZM74.6808 67.19H77.8308C78.2788 67.19 78.6242 67.078 78.8668 66.854C79.1095 66.63 79.2308 66.3173 79.2308 65.916C79.2308 65.5613 79.1095 65.2767 78.8668 65.062C78.6242 64.8473 78.2788 64.74 77.8308 64.74H74.6808V67.19ZM74.6808 71.46H77.7608C78.9742 71.46 79.5808 70.9933 79.5808 70.06C79.5808 69.1267 78.9742 68.66 77.7608 68.66H74.6808V71.46ZM82.9419 73V63.2H85.6019L88.2619 69.29H88.6119L91.2719 63.2H93.8619V73H92.2519V66.14L92.3919 64.81H92.2519L89.6619 70.76H87.1419L84.5519 64.81H84.4119L84.5519 66.14V73H82.9419ZM95.8208 73V63.2H97.4308V73H95.8208ZM98.5492 64.74V63.2H106.599V64.74H103.379V73H101.769V64.74H98.5492ZM33.6368 91L36.1568 81.2H40.1468L42.7368 91H41.0568L40.3848 88.48H35.8768L35.2468 91H33.6368ZM36.2968 86.94H39.9928L38.8868 82.74H37.3468L36.2968 86.94ZM43.9224 91V81.2H48.1924C49.3217 81.2 50.2317 81.5173 50.9224 82.152C51.6224 82.7773 51.9724 83.5567 51.9724 84.49C51.9724 85.4233 51.6224 86.2073 50.9224 86.842C50.2317 87.4673 49.3217 87.78 48.1924 87.78H45.5324V91H43.9224ZM45.5324 86.24H48.1924C48.8737 86.24 49.3917 86.086 49.7464 85.778C50.1104 85.4607 50.2924 85.0313 50.2924 84.49C50.2924 83.9487 50.1104 83.524 49.7464 83.216C49.3917 82.8987 48.8737 82.74 48.1924 82.74H45.5324V86.24ZM53.3696 91V81.2H57.6396C58.769 81.2 59.679 81.5173 60.3696 82.152C61.0696 82.7773 61.4196 83.5567 61.4196 84.49C61.4196 85.4233 61.0696 86.2073 60.3696 86.842C59.679 87.4673 58.769 87.78 57.6396 87.78H54.9796V91H53.3696ZM54.9796 86.24H57.6396C58.321 86.24 58.839 86.086 59.1936 85.778C59.5576 85.4607 59.7396 85.0313 59.7396 84.49C59.7396 83.9487 59.5576 83.524 59.1936 83.216C58.839 82.8987 58.321 82.74 57.6396 82.74H54.9796V86.24ZM62.8169 91V81.2H64.4269V89.46H69.3969V91H62.8169ZM70.3775 91V81.2H71.9875V91H70.3775ZM75.0378 89.81C74.0298 88.83 73.5258 87.5933 73.5258 86.1C73.5258 84.6067 74.0298 83.37 75.0378 82.39C76.0458 81.41 77.2918 80.92 78.7758 80.92C80.4745 80.92 81.7998 81.5173 82.7518 82.712C83.1718 83.2253 83.4798 83.818 83.6758 84.49H82.0658C81.8978 84.1167 81.6645 83.7807 81.3658 83.482C80.6845 82.8007 79.8212 82.46 78.7758 82.46C77.7212 82.46 76.8625 82.796 76.1998 83.468C75.5372 84.14 75.2058 85.0173 75.2058 86.1C75.2058 87.1827 75.5372 88.06 76.1998 88.732C76.8625 89.404 77.7212 89.74 78.7758 89.74C79.8492 89.74 80.7312 89.3667 81.4218 88.62C81.7298 88.3027 81.9678 87.9293 82.1358 87.5H83.7458C83.5032 88.228 83.1625 88.858 82.7238 89.39C81.7532 90.65 80.4372 91.28 78.7758 91.28C77.2918 91.28 76.0458 90.79 75.0378 89.81ZM84.168 91L86.688 81.2H90.678L93.268 91H91.588L90.916 88.48H86.408L85.778 91H84.168ZM86.828 86.94H90.524L89.418 82.74H87.878L86.828 86.94ZM93.0531 82.74V81.2H101.103V82.74H97.8831V91H96.2731V82.74H93.0531ZM102.219 91V81.2H103.829V91H102.219ZM106.866 89.796C105.867 88.8067 105.368 87.5747 105.368 86.1C105.368 84.6253 105.867 83.3933 106.866 82.404C107.864 81.4147 109.115 80.92 110.618 80.92C112.12 80.92 113.371 81.4147 114.37 82.404C115.368 83.3933 115.868 84.6253 115.868 86.1C115.868 87.5747 115.368 88.8067 114.37 89.796C113.371 90.7853 112.12 91.28 110.618 91.28C109.115 91.28 107.864 90.7853 106.866 89.796ZM108.042 83.468C107.379 84.14 107.048 85.0173 107.048 86.1C107.048 87.1827 107.379 88.06 108.042 88.732C108.704 89.404 109.563 89.74 110.618 89.74C111.663 89.74 112.517 89.404 113.18 88.732C113.852 88.06 114.188 87.1827 114.188 86.1C114.188 85.0173 113.852 84.14 113.18 83.468C112.517 82.796 111.663 82.46 110.618 82.46C109.563 82.46 108.704 82.796 108.042 83.468ZM117.409 91V81.2H119.719L123.989 88.97H124.129L123.989 87.78V81.2H125.599V91H123.289L119.019 83.23H118.879L119.019 84.42V91H117.409Z" fill="white"/>
<path d="M17.7517 91.0849C17.2314 91.8349 16.493 92.2895 15.5366 92.4486C14.5801 92.6078 13.7343 92.4167 12.9992 91.8755C12.2641 91.3343 11.8174 90.5885 11.6593 89.638C11.4783 88.55 11.7197 87.6374 12.3834 86.9004C12.6675 86.5767 13.0142 86.3162 13.4238 86.1191L13.5953 87.1503C13.3741 87.2977 13.1838 87.4829 13.0243 87.7061C12.6605 88.2151 12.5343 88.8043 12.6457 89.4739C12.7581 90.1494 13.0648 90.6636 13.5658 91.0164C14.0668 91.3692 14.6641 91.488 15.3575 91.3726C16.051 91.2572 16.5776 90.9515 16.9374 90.4555C17.2972 89.9594 17.4209 89.3736 17.3086 88.6981C17.1912 87.9927 16.8412 87.4581 16.2584 87.0943C15.9925 86.9358 15.715 86.8376 15.4261 86.7996L15.6126 87.9205L14.6262 88.0846L14.1414 85.1703L15.1278 85.0062L15.2546 85.7684C15.7497 85.8273 16.2025 85.964 16.6129 86.1783C17.5572 86.6847 18.1179 87.4699 18.2949 88.534C18.4531 89.4845 18.272 90.3348 17.7517 91.0849Z" fill="white"/>
<path d="M16.3884 79.3968C15.7336 80.0327 14.9275 80.3414 13.9702 80.3229C13.0129 80.3043 12.2193 79.9647 11.5896 79.3039C10.9599 78.6432 10.6545 77.8251 10.6734 76.8496C10.6923 75.874 11.0291 75.0684 11.6839 74.4325C12.3387 73.7966 13.1448 73.4879 14.1021 73.5064C15.0595 73.525 15.853 73.8646 16.4827 74.5253C17.1124 75.1861 17.4178 76.0042 17.3989 76.9797C17.3801 77.9552 17.0432 78.7609 16.3884 79.3968ZM12.2951 78.5539C12.7231 78.9925 13.2885 79.2186 13.9913 79.2322C14.6942 79.2458 15.2679 79.0418 15.7125 78.62C16.157 78.1983 16.386 77.6451 16.3992 76.9604C16.4123 76.2818 16.2049 75.7231 15.777 75.2845C15.3492 74.8398 14.7839 74.6107 14.081 74.5971C13.3782 74.5834 12.8044 74.7906 12.3597 75.2184C11.9151 75.6401 11.6863 76.1903 11.6731 76.8689C11.6599 77.5536 11.8672 78.1152 12.2951 78.5539Z" fill="white"/>
<path d="M12.4404 68.7034L11.457 68.5219L12.4057 63.3818L13.389 63.5633L13.0096 65.6194L18.2838 66.5928L18.094 67.6208L12.8198 66.6474L12.4404 68.7034Z" fill="white"/>
<path d="M21.5011 55.2694L16.3987 51.1301L17.4784 48.7751L23.9636 49.8983L23.509 50.8899L21.8397 50.6046L20.6198 53.2654L21.9367 54.3192L21.5011 55.2694ZM19.8245 52.6008L20.8247 50.4193L18.0464 49.9355L17.6297 50.8445L19.8245 52.6008Z" fill="white"/>
<path d="M26.6754 39.4835C25.9388 38.8718 25.5305 38.1113 25.4506 37.2021C25.3707 36.2928 25.6424 35.4629 26.2657 34.7123C26.8891 33.9617 27.655 33.5421 28.5634 33.4537C29.4719 33.3652 30.2945 33.6269 31.0311 34.2386C31.6931 34.7884 32.0939 35.4678 32.2334 36.2769C32.3682 37.0821 32.2085 37.8435 31.7542 38.5612L33.048 39.6357L32.3801 40.4399L31.0864 39.3655C30.4565 39.9531 29.7296 40.2593 28.9056 40.284C28.0808 40.3002 27.3374 40.0333 26.6754 39.4835ZM26.4699 37.056C26.5307 37.6658 26.8315 38.1952 27.3723 38.6444C27.9131 39.0935 28.4888 39.2919 29.0994 39.2397C29.7099 39.1874 30.234 38.8979 30.6715 38.371C31.1051 37.8489 31.2915 37.2829 31.2308 36.6731C31.1738 36.0587 30.875 35.5269 30.3342 35.0778C29.7934 34.6287 29.2157 34.4326 28.6013 34.4895C27.9907 34.5417 27.4686 34.8289 27.035 35.3511C26.5975 35.8779 26.4091 36.4462 26.4699 37.056Z" fill="white"/>
<path d="M35.0127 31.3004L32.4668 28.3344L33.26 27.6535L35.806 30.6195C36.1454 31.0149 36.5114 31.2319 36.9038 31.2704C37.2963 31.3089 37.6764 31.1703 38.0443 30.8545C38.4122 30.5387 38.6068 30.184 38.6282 29.7902C38.6497 29.3965 38.4906 29.0019 38.1512 28.6064L35.6052 25.6404L36.3985 24.9595L38.9444 27.9255C39.4773 28.5463 39.7206 29.188 39.6744 29.8506C39.6289 30.5047 39.3026 31.0922 38.6956 31.6133C38.0886 32.1343 37.4561 32.3697 36.7981 32.3196C36.1407 32.2609 35.5456 31.9212 35.0127 31.3004Z" fill="white"/>
<path d="M44.2373 27.0998L40.875 21.6974L44.7724 19.2718L45.3008 20.1207L42.2909 21.994L43.1555 23.3832L45.5865 21.8701L46.1149 22.7191L43.6838 24.2321L44.5965 25.6985L47.6063 23.8252L48.1347 24.6741L44.2373 27.0998Z" fill="white"/>
<path d="M51.0395 20.9599L52.0425 20.531C52.1649 20.7094 52.3208 20.8503 52.5101 20.9539C52.9253 21.185 53.4059 21.1838 53.952 20.9503C54.3922 20.7621 54.6848 20.5447 54.8298 20.2981C54.9725 20.046 54.9866 19.7862 54.8722 19.5188C54.7817 19.307 54.6115 19.1788 54.3617 19.134C54.1174 19.0868 53.7967 19.0922 53.3996 19.1499C52.6268 19.2694 52.0956 19.3219 51.806 19.3074C51.0119 19.2844 50.4826 18.9637 50.2181 18.3452C50.0156 17.8716 50.041 17.3762 50.2945 16.8592C50.5456 16.3366 50.9943 15.9371 51.6407 15.6607C52.4988 15.2938 53.2595 15.308 53.9228 15.7032C54.206 15.8721 54.4557 16.1015 54.6719 16.3913L53.6689 16.8202C53.5632 16.6809 53.4339 16.5713 53.2812 16.4916C52.9281 16.3131 52.5063 16.3287 52.016 16.5384C51.637 16.7004 51.3807 16.9023 51.2468 17.1441C51.1129 17.3859 51.0984 17.6294 51.2032 17.8745C51.3605 18.2423 51.8525 18.368 52.6794 18.2517C52.7478 18.2422 52.8792 18.2256 53.0733 18.2019C53.2651 18.1726 53.4032 18.1564 53.4876 18.1533C53.5751 18.1423 53.7088 18.1312 53.8886 18.1202C54.0717 18.1013 54.2117 18.0974 54.3088 18.1086C54.4059 18.1199 54.5312 18.1355 54.6848 18.1555C54.8359 18.1699 54.9588 18.2031 55.0535 18.2549C55.1513 18.2987 55.2539 18.3537 55.3613 18.4198C55.4743 18.4836 55.5709 18.5708 55.6511 18.6815C55.729 18.7866 55.7978 18.9088 55.8573 19.0481C56.0718 19.5496 56.0451 20.0652 55.7773 20.5949C55.5127 21.1167 55.0293 21.5277 54.3272 21.828C53.3911 22.2282 52.566 22.2021 51.8518 21.7495C51.5344 21.5623 51.2637 21.2991 51.0395 20.9599Z" fill="white"/>
<path d="M59.2742 14.0584L59.0254 13.0899L64.0879 11.7894L64.3367 12.7579L62.3117 13.2781L63.6461 18.4727L62.6336 18.7328L61.2992 13.5382L59.2742 14.0584Z" fill="white"/>
<path d="M69.9895 17.2246L69.1621 10.9154L70.1986 10.7795L71.026 17.0887L69.9895 17.2246Z" fill="white"/>
<path d="M76.4745 15.8201C75.8302 15.1735 75.5112 14.3715 75.5174 13.414C75.5235 12.4565 75.8529 11.6587 76.5055 11.0205C77.1581 10.3823 77.9722 10.0664 78.9479 10.0727C79.9235 10.079 80.7335 10.4054 81.3778 11.0519C82.0221 11.6985 82.3411 12.5005 82.3349 13.458C82.3288 14.4155 81.9994 15.2133 81.3468 15.8515C80.6943 16.4897 79.8801 16.8057 78.9045 16.7994C77.9288 16.7931 77.1188 16.4666 76.4745 15.8201ZM77.2646 11.7163C76.8315 12.1498 76.6127 12.7181 76.6082 13.4211C76.6036 14.124 76.8151 14.6951 77.2426 15.1342C77.67 15.5733 78.2261 15.795 78.9109 15.7994C79.5896 15.8038 80.1455 15.5892 80.5786 15.1557C81.0178 14.7222 81.2396 14.1539 81.2441 13.451C81.2487 12.748 81.0342 12.177 80.6007 11.7378C80.1732 11.2987 79.6201 11.077 78.9414 11.0726C78.2566 11.0682 77.6977 11.2827 77.2646 11.7163Z" fill="white"/>
<path d="M86.7506 17.085L87.8906 10.8248L89.3663 11.0935L91.19 16.5537L91.2795 16.57L91.3285 15.7936L92.0939 11.5903L93.1224 11.7776L91.9824 18.0378L90.5067 17.7691L88.6829 12.3089L88.5935 12.2926L88.5445 13.069L87.779 17.2723L86.7506 17.085Z" fill="white"/>
<path d="M139.453 64.7088C139.969 63.9563 140.706 63.4982 141.661 63.3345C142.617 63.1709 143.464 63.3579 144.201 63.8956C144.939 64.4333 145.389 65.177 145.552 66.1268C145.738 67.2139 145.501 68.1276 144.841 68.8678C144.558 69.1928 144.213 69.4549 143.804 69.654L143.628 68.6236C143.848 68.4752 144.038 68.289 144.196 68.0651C144.558 67.5544 144.681 66.9646 144.566 66.2955C144.451 65.6206 144.142 65.1079 143.639 64.7574C143.136 64.407 142.538 64.2911 141.846 64.4097C141.153 64.5284 140.627 64.8366 140.27 65.3344C139.913 65.8321 139.792 66.4185 139.907 67.0934C140.028 67.7983 140.381 68.3312 140.965 68.6923C141.232 68.8495 141.51 68.9464 141.799 68.983L141.607 67.863L142.592 67.6942L143.091 70.6061L142.106 70.7749L141.975 70.0133C141.48 69.9568 141.026 69.8223 140.615 69.6099C139.668 69.108 139.104 68.3255 138.922 67.2622C138.759 66.3125 138.936 65.4614 139.453 64.7088Z" fill="white"/>
<path d="M140.87 76.3905C141.521 75.7515 142.326 75.439 143.283 75.4529C144.241 75.4669 145.036 75.8028 145.669 76.4605C146.302 77.1183 146.611 77.935 146.597 78.9105C146.582 79.8861 146.249 80.6934 145.598 81.3324C144.946 81.9714 144.141 82.2839 143.184 82.2699C142.226 82.2559 141.431 81.9201 140.799 81.2623C140.166 80.6046 139.856 79.7879 139.871 78.8123C139.885 77.8367 140.218 77.0294 140.87 76.3905ZM144.967 77.2139C144.537 76.7774 143.97 76.5539 143.268 76.5437C142.565 76.5334 141.992 76.7402 141.549 77.164C141.107 77.5879 140.88 78.1422 140.87 78.8269C140.861 79.5056 141.071 80.0632 141.501 80.4998C141.93 80.9425 142.497 81.1689 143.2 81.1792C143.903 81.1895 144.476 80.9796 144.918 80.5497C145.361 80.1259 145.587 79.5746 145.597 78.8959C145.607 78.2112 145.397 77.6505 144.967 77.2139Z" fill="white"/>
<path d="M144.869 87.0648L145.854 87.2416L144.929 92.3861L143.945 92.2093L144.315 90.1515L139.036 89.2031L139.221 88.1742L144.5 89.1226L144.869 87.0648Z" fill="white"/>
<path d="M135.873 100.542L140.995 104.657L139.927 107.017L133.436 105.925L133.886 104.931L135.557 105.208L136.764 102.542L135.442 101.494L135.873 100.542ZM137.562 103.203L136.573 105.389L139.353 105.859L139.765 104.948L137.562 103.203Z" fill="white"/>
<path d="M130.775 116.352C131.515 116.96 131.927 117.719 132.011 118.628C132.095 119.537 131.827 120.368 131.208 121.121C130.588 121.875 129.824 122.298 128.916 122.391C128.008 122.484 127.184 122.226 126.445 121.618C125.78 121.071 125.376 120.393 125.233 119.585C125.094 118.781 125.25 118.018 125.701 117.298L124.402 116.23L125.066 115.423L126.365 116.491C126.992 115.9 127.717 115.591 128.541 115.562C129.366 115.542 130.111 115.805 130.775 116.352ZM130.992 118.779C130.929 118.169 130.625 117.641 130.082 117.195C129.54 116.748 128.963 116.552 128.353 116.607C127.742 116.663 127.22 116.955 126.785 117.484C126.353 118.008 126.17 118.575 126.233 119.184C126.293 119.798 126.595 120.329 127.138 120.775C127.681 121.222 128.259 121.415 128.873 121.355C129.484 121.3 130.004 121.01 130.435 120.486C130.87 119.957 131.056 119.388 130.992 118.779Z" fill="white"/>
<path d="M122.477 124.575L125.037 127.529L124.247 128.213L121.687 125.259C121.346 124.866 120.979 124.65 120.586 124.614C120.194 124.577 119.814 124.717 119.448 125.035C119.081 125.353 118.888 125.708 118.869 126.102C118.849 126.496 119.01 126.89 119.352 127.284L121.912 130.237L121.122 130.922L118.562 127.968C118.026 127.35 117.779 126.709 117.822 126.047C117.865 125.392 118.188 124.803 118.793 124.279C119.397 123.755 120.029 123.517 120.687 123.564C121.345 123.62 121.941 123.956 122.477 124.575Z" fill="white"/>
<path d="M113.272 128.819L116.66 134.206L112.774 136.65L112.242 135.803L115.243 133.916L114.372 132.531L111.948 134.055L111.415 133.209L113.839 131.684L112.92 130.222L109.919 132.11L109.386 131.263L113.272 128.819Z" fill="white"/>
<path d="M106.497 134.991L105.496 135.425C105.373 135.247 105.216 135.107 105.026 135.004C104.61 134.775 104.129 134.778 103.585 135.015C103.145 135.205 102.854 135.424 102.71 135.671C102.568 135.924 102.555 136.184 102.671 136.45C102.763 136.662 102.933 136.789 103.183 136.833C103.428 136.879 103.749 136.872 104.145 136.812C104.918 136.689 105.449 136.634 105.738 136.647C106.532 136.666 107.063 136.985 107.331 137.602C107.536 138.075 107.512 138.57 107.261 139.088C107.013 139.612 106.566 140.014 105.921 140.293C105.065 140.664 104.304 140.654 103.639 140.262C103.355 140.094 103.104 139.866 102.886 139.577L103.887 139.143C103.994 139.282 104.123 139.391 104.276 139.47C104.63 139.647 105.052 139.629 105.541 139.417C105.92 139.253 106.175 139.05 106.308 138.808C106.441 138.565 106.454 138.322 106.348 138.077C106.189 137.71 105.696 137.587 104.87 137.707C104.802 137.717 104.67 137.734 104.476 137.759C104.285 137.789 104.147 137.806 104.062 137.809C103.975 137.821 103.841 137.832 103.661 137.844C103.478 137.864 103.338 137.869 103.241 137.858C103.144 137.847 103.019 137.832 102.865 137.813C102.714 137.799 102.591 137.767 102.496 137.715C102.398 137.672 102.295 137.617 102.187 137.552C102.074 137.489 101.977 137.402 101.896 137.291C101.818 137.187 101.748 137.065 101.688 136.926C101.471 136.425 101.496 135.91 101.761 135.379C102.023 134.856 102.504 134.442 103.205 134.139C104.139 133.734 104.965 133.756 105.681 134.205C105.999 134.391 106.271 134.653 106.497 134.991Z" fill="white"/>
<path d="M98.2954 141.932L98.5488 142.899L93.4925 144.224L93.2391 143.256L95.2617 142.727L93.9026 137.538L94.9139 137.273L96.2729 142.462L98.2954 141.932Z" fill="white"/>
<path d="M87.5646 138.817L88.4219 145.122L87.386 145.263L86.5287 138.957L87.5646 138.817Z" fill="white"/>
<path d="M81.0879 140.252C81.7353 140.895 82.0581 141.696 82.0565 142.653C82.0549 143.611 81.7293 144.41 81.0798 145.052C80.4302 145.693 79.6176 146.013 78.6419 146.011C77.6662 146.009 76.8547 145.687 76.2074 145.043C75.56 144.4 75.2372 143.599 75.2388 142.642C75.2404 141.684 75.566 140.885 76.2155 140.244C76.8651 139.602 77.6777 139.283 78.6534 139.284C79.6291 139.286 80.4406 139.608 81.0879 140.252ZM80.3173 144.359C80.7484 143.924 80.9645 143.355 80.9657 142.652C80.9669 141.949 80.7527 141.379 80.3232 140.941C79.8936 140.504 79.3365 140.285 78.6517 140.284C77.9729 140.283 77.418 140.5 76.987 140.936C76.55 141.371 76.3308 141.941 76.3296 142.644C76.3284 143.347 76.5456 143.917 76.9812 144.354C77.4107 144.791 77.9649 145.01 78.6436 145.011C79.3284 145.012 79.8863 144.795 80.3173 144.359Z" fill="white"/>
<path d="M70.8056 139.036L69.6953 145.301L68.2184 145.04L66.3687 139.588L66.2792 139.572L66.2339 140.349L65.4884 144.556L64.4591 144.373L65.5694 138.108L67.0463 138.37L68.896 143.821L68.9855 143.837L69.0308 143.06L69.7763 138.853L70.8056 139.036Z" fill="white"/>
</svg>
