<svg width="18" height="18" viewBox="0 0 18 18" fill="none" xmlns="http://www.w3.org/2000/svg">
<path fill-rule="evenodd" clip-rule="evenodd" d="M8.99775 0H9.00225C13.9646 0 18 4.03763 18 9C18 13.9624 13.9646 18 9.00225 18C7.17188 18 5.47425 17.4555 4.05113 16.5128L0.59175 17.6186L1.71337 14.2751C0.6345 12.7935 0 10.9688 0 9C0 4.0365 4.03538 0 8.99775 0ZM12.4728 13.9792C13.1601 13.8307 14.0219 13.3222 14.239 12.7091C14.4561 12.0949 14.4561 11.5717 14.3931 11.4604C14.3423 11.372 14.222 11.3141 14.0424 11.2276C13.9957 11.2051 13.9449 11.1807 13.8903 11.1532C13.6259 11.0216 12.34 10.386 12.097 10.3016C11.8585 10.2116 11.6313 10.2431 11.4513 10.4974C11.417 10.5453 11.3829 10.5933 11.3489 10.6411C11.1318 10.9465 10.9223 11.2411 10.7481 11.4289C10.5895 11.5976 10.3308 11.619 10.1136 11.529C10.09 11.5191 10.0628 11.5082 10.0324 11.4959C9.68867 11.357 8.92615 11.0491 8.00314 10.2274C7.22464 9.53436 6.69589 8.67148 6.54289 8.41273C6.39267 8.15316 6.52225 8.00096 6.642 7.86029C6.64422 7.85768 6.64643 7.85508 6.64864 7.85248C6.72585 7.75695 6.80078 7.67741 6.87608 7.59746C6.93024 7.53996 6.9846 7.48225 7.04014 7.41823C7.04839 7.40872 7.05642 7.3995 7.06423 7.39051C7.18216 7.25492 7.25239 7.17417 7.33152 7.00536C7.42152 6.83098 7.35739 6.65098 7.29327 6.51823C7.24915 6.42526 6.97659 5.76396 6.74262 5.19628C6.6425 4.95338 6.54946 4.72762 6.48439 4.57086C6.31002 4.15348 6.17727 4.13773 5.91289 4.12648C5.90479 4.12608 5.89661 4.12566 5.88834 4.12524C5.80477 4.12102 5.71274 4.11636 5.61139 4.11636C5.26714 4.11636 4.90827 4.21761 4.69114 4.43923C4.68356 4.44698 4.67565 4.45502 4.66744 4.46337C4.38966 4.74587 3.77089 5.37517 3.77089 6.62961C3.77089 7.88647 4.66268 9.10284 4.82769 9.3279C4.83224 9.33411 4.83623 9.33956 4.83964 9.34423C4.84957 9.35727 4.86828 9.38437 4.89552 9.42382C5.23244 9.91173 6.87346 12.2882 9.32052 13.302C11.3883 14.1592 12.0025 14.0794 12.4728 13.9792Z" fill="white"/>
</svg>
